<svg width="63" height="29" viewBox="0 0 63 29" fill="none" xmlns="http://www.w3.org/2000/svg">
<mask id="mask0_2229_270" style="mask-type:alpha" maskUnits="userSpaceOnUse" x="4" y="1" width="26" height="25">
<rect x="4.84619" y="1.70587" width="24.2308" height="24.1667" fill="#D9D9D9"/>
</mask>
<g mask="url(#mask0_2229_270)">
<path d="M16.9616 23.8586C15.5818 23.8586 14.2777 23.5943 13.0494 23.0656C11.821 22.537 10.7483 21.8154 9.83122 20.9007C8.91416 19.9861 8.1906 18.9162 7.66055 17.6911C7.1305 16.466 6.86548 15.1653 6.86548 13.7892C6.86548 12.3962 7.1305 11.0914 7.66055 9.87467C8.1906 8.65795 8.91416 7.59227 9.83122 6.67763C10.7483 5.76298 11.821 5.04134 13.0494 4.5127C14.2777 3.98405 15.5818 3.71973 16.9616 3.71973C18.3583 3.71973 19.6666 3.98405 20.8865 4.5127C22.1065 5.04134 23.175 5.76298 24.092 6.67763C25.0091 7.59227 25.7327 8.65795 26.2627 9.87467C26.7928 11.0914 27.0578 12.3962 27.0578 13.7892C27.0578 15.1653 26.7928 16.466 26.2627 17.6911C25.7327 18.9162 25.0091 19.9861 24.092 20.9007C23.175 21.8154 22.1065 22.537 20.8865 23.0656C19.6666 23.5943 18.3583 23.8586 16.9616 23.8586ZM16.9616 21.7944C17.3991 21.1902 17.7777 20.5609 18.0974 19.9064C18.4172 19.2518 18.678 18.5554 18.8799 17.8169H15.0434C15.2453 18.5554 15.5061 19.2518 15.8258 19.9064C16.1455 20.5609 16.5241 21.1902 16.9616 21.7944ZM14.3366 21.3916C14.0337 20.8378 13.7687 20.263 13.5416 19.6672C13.3144 19.0714 13.1251 18.4547 12.9737 17.8169H9.99529C10.4833 18.6561 11.0932 19.3861 11.8252 20.0071C12.5572 20.628 13.3943 21.0895 14.3366 21.3916ZM19.5866 21.3916C20.5289 21.0895 21.3661 20.628 22.0981 20.0071C22.83 19.3861 23.44 18.6561 23.928 17.8169H20.9496C20.7982 18.4547 20.6089 19.0714 20.3817 19.6672C20.1545 20.263 19.8895 20.8378 19.5866 21.3916ZM9.13711 15.8031H12.5698C12.5193 15.4674 12.4815 15.136 12.4562 14.8087C12.431 14.4814 12.4184 14.1416 12.4184 13.7892C12.4184 13.4367 12.431 13.0969 12.4562 12.7696C12.4815 12.4424 12.5193 12.1109 12.5698 11.7753H9.13711C9.05298 12.1109 8.98988 12.4424 8.94781 12.7696C8.90574 13.0969 8.88471 13.4367 8.88471 13.7892C8.88471 14.1416 8.90574 14.4814 8.94781 14.8087C8.98988 15.136 9.05298 15.4674 9.13711 15.8031ZM14.589 15.8031H19.3342C19.3847 15.4674 19.4226 15.136 19.4478 14.8087C19.4731 14.4814 19.4857 14.1416 19.4857 13.7892C19.4857 13.4367 19.4731 13.0969 19.4478 12.7696C19.4226 12.4424 19.3847 12.1109 19.3342 11.7753H14.589C14.5386 12.1109 14.5007 12.4424 14.4755 12.7696C14.4502 13.0969 14.4376 13.4367 14.4376 13.7892C14.4376 14.1416 14.4502 14.4814 14.4755 14.8087C14.5007 15.136 14.5386 15.4674 14.589 15.8031ZM21.3535 15.8031H24.7862C24.8703 15.4674 24.9334 15.136 24.9755 14.8087C25.0175 14.4814 25.0386 14.1416 25.0386 13.7892C25.0386 13.4367 25.0175 13.0969 24.9755 12.7696C24.9334 12.4424 24.8703 12.1109 24.7862 11.7753H21.3535C21.4039 12.1109 21.4418 12.4424 21.467 12.7696C21.4923 13.0969 21.5049 13.4367 21.5049 13.7892C21.5049 14.1416 21.4923 14.4814 21.467 14.8087C21.4418 15.136 21.4039 15.4674 21.3535 15.8031ZM20.9496 9.76139H23.928C23.44 8.92227 22.83 8.19224 22.0981 7.57129C21.3661 6.95034 20.5289 6.48882 19.5866 6.18674C19.8895 6.74056 20.1545 7.31536 20.3817 7.91113C20.6089 8.50691 20.7982 9.12366 20.9496 9.76139ZM15.0434 9.76139H18.8799C18.678 9.02297 18.4172 8.3265 18.0974 7.67198C17.7777 7.01747 17.3991 6.38813 16.9616 5.78396C16.5241 6.38813 16.1455 7.01747 15.8258 7.67198C15.5061 8.3265 15.2453 9.02297 15.0434 9.76139ZM9.99529 9.76139H12.9737C13.1251 9.12366 13.3144 8.50691 13.5416 7.91113C13.7687 7.31536 14.0337 6.74056 14.3366 6.18674C13.3943 6.48882 12.5572 6.95034 11.8252 7.57129C11.0932 8.19224 10.4833 8.92227 9.99529 9.76139Z" fill="white"/>
</g>
<mask id="mask1_2229_270" style="mask-type:alpha" maskUnits="userSpaceOnUse" x="38" y="5" width="21" height="21">
<rect x="38.7693" y="5.11765" width="19.3846" height="20.4706" fill="#D9D9D9"/>
</mask>
<g mask="url(#mask1_2229_270)">
<path d="M48.4616 18.2316L43.6155 13.114L44.7462 11.9199L48.4616 15.8434L52.177 11.9199L53.3078 13.114L48.4616 18.2316Z" fill="white"/>
</g>
<path d="M1.5 14.5C1.5 7.3203 7.3203 1.5 14.5 1.5H48.5C55.6797 1.5 61.5 7.3203 61.5 14.5C61.5 21.6797 55.6797 27.5 48.5 27.5H14.5C7.3203 27.5 1.5 21.6797 1.5 14.5Z" stroke="white" stroke-width="3"/>
</svg>
