<svg width="25" height="25" viewBox="0 0 25 25" fill="none" xmlns="http://www.w3.org/2000/svg">
<mask id="mask0_2320_446" style="mask-type:alpha" maskUnits="userSpaceOnUse" x="0" y="0" width="25" height="25">
<path d="M24.2308 0H0V24.1667H24.2308V0Z" fill="#D9D9D9"/>
</mask>
<g mask="url(#mask0_2320_446)">
<path d="M12.1154 22.1527C10.7356 22.1527 9.43147 21.8884 8.20317 21.3597C6.97477 20.8311 5.90207 20.1095 4.98497 19.1948C4.0679 18.2802 3.34435 17.2103 2.8143 15.9852C2.28425 14.7601 2.01923 13.4594 2.01923 12.0833C2.01923 10.6903 2.28425 9.38553 2.8143 8.1688C3.34435 6.95208 4.0679 5.8864 4.98497 4.97176C5.90207 4.05711 6.97477 3.33547 8.20317 2.80683C9.43147 2.27818 10.7356 2.01385 12.1154 2.01385C13.512 2.01385 14.8203 2.27818 16.0403 2.80683C17.2602 3.33547 18.3288 4.05711 19.2458 4.97176C20.1629 5.8864 20.8864 6.95208 21.4165 8.1688C21.9465 9.38553 22.2116 10.6903 22.2116 12.0833C22.2116 13.4594 21.9465 14.7601 21.4165 15.9852C20.8864 17.2103 20.1629 18.2802 19.2458 19.1948C18.3288 20.1095 17.2602 20.8311 16.0403 21.3597C14.8203 21.8884 13.512 22.1527 12.1154 22.1527ZM12.1154 20.0885C12.5529 19.4843 12.9315 18.855 13.2512 18.2005C13.5709 17.5459 13.8318 16.8495 14.0337 16.111H10.1971C10.3991 16.8495 10.6599 17.5459 10.9796 18.2005C11.2993 18.855 11.6779 19.4843 12.1154 20.0885ZM9.49037 19.6857C9.18747 19.1319 8.92247 18.5571 8.69527 17.9613C8.46817 17.3655 8.27887 16.7488 8.12737 16.111H5.14903C5.63697 16.9502 6.24697 17.6802 6.97897 18.3012C7.71097 18.9221 8.54807 19.3836 9.49037 19.6857ZM14.7404 19.6857C15.6827 19.3836 16.5199 18.9221 17.2518 18.3012C17.9838 17.6802 18.5938 16.9502 19.0818 16.111H16.1034C15.9519 16.7488 15.7626 17.3655 15.5355 17.9613C15.3083 18.5571 15.0433 19.1319 14.7404 19.6857ZM4.29086 14.0972H7.72357C7.67307 13.7615 7.63517 13.4301 7.60997 13.1028C7.58477 12.7755 7.57207 12.4357 7.57207 12.0833C7.57207 11.7308 7.58477 11.391 7.60997 11.0637C7.63517 10.7365 7.67307 10.405 7.72357 10.0694H4.29086C4.20673 10.405 4.14363 10.7365 4.10156 11.0637C4.05949 11.391 4.03846 11.7308 4.03846 12.0833C4.03846 12.4357 4.05949 12.7755 4.10156 13.1028C4.14363 13.4301 4.20673 13.7615 4.29086 14.0972ZM9.74277 14.0972H14.488C14.5385 13.7615 14.5763 13.4301 14.6016 13.1028C14.6268 12.7755 14.6394 12.4357 14.6394 12.0833C14.6394 11.7308 14.6268 11.391 14.6016 11.0637C14.5763 10.7365 14.5385 10.405 14.488 10.0694H9.74277C9.69227 10.405 9.65447 10.7365 9.62917 11.0637C9.60397 11.391 9.59137 11.7308 9.59137 12.0833C9.59137 12.4357 9.60397 12.7755 9.62917 13.1028C9.65447 13.4301 9.69227 13.7615 9.74277 14.0972ZM16.5072 14.0972H19.9399C20.0241 13.7615 20.0872 13.4301 20.1292 13.1028C20.1713 12.7755 20.1923 12.4357 20.1923 12.0833C20.1923 11.7308 20.1713 11.391 20.1292 11.0637C20.0872 10.7365 20.0241 10.405 19.9399 10.0694H16.5072C16.5577 10.405 16.5956 10.7365 16.6208 11.0637C16.6461 11.391 16.6587 11.7308 16.6587 12.0833C16.6587 12.4357 16.6461 12.7755 16.6208 13.1028C16.5956 13.4301 16.5577 13.7615 16.5072 14.0972ZM16.1034 8.05551H19.0818C18.5938 7.21639 17.9838 6.48637 17.2518 5.86542C16.5199 5.24447 15.6827 4.78295 14.7404 4.48087C15.0433 5.03469 15.3083 5.60949 15.5355 6.20526C15.7626 6.80104 15.9519 7.41778 16.1034 8.05551ZM10.1971 8.05551H14.0337C13.8318 7.31709 13.5709 6.62062 13.2512 5.9661C12.9315 5.31159 12.5529 4.68225 12.1154 4.07808C11.6779 4.68225 11.2993 5.31159 10.9796 5.9661C10.6599 6.62062 10.3991 7.31709 10.1971 8.05551ZM5.14903 8.05551H8.12737C8.27887 7.41778 8.46817 6.80104 8.69527 6.20526C8.92247 5.60949 9.18747 5.03469 9.49037 4.48087C8.54807 4.78295 7.71097 5.24447 6.97897 5.86542C6.24697 6.48637 5.63697 7.21639 5.14903 8.05551Z" fill="white"/>
</g>
</svg>
